<svg preserveAspectRatio="none" xmlns="http://www.w3.org/2000/svg" viewBox="0 0 631 631"><path d="M.2 540.3l13.9-3.2c22.1-5 29.8-21.6 30.1-39.3l2.7-250.2c.3-15.5-9.1-30.4-30.2-25.6l-16 3.6.5-12.1c58.6-16.2 97.3-34.1 118.7-68.6l18.5-4.2-3.1 336.4c-.3 20 9.1 30.4 30.2 25.6l10.8-2.5-.5 12.1L-.3 552.4l.5-12.1zm174.4-153.1c-3.3-14.6-6.5-45.3-5.4-62 5.8-90.8 53.6-180.9 136.5-199.7 66.4-15.1 126.6 35 146.1 120.7 5.8 25.5 6.6 62.3 2.9 86.5-13.7 89.7-69.4 161.7-136.4 176.9-63.9 14.5-122.9-30.8-143.7-122.4zm193.8-88.5c-.4-39.8-4.6-84.4-10.6-111-9-39.6-25.3-56.4-46.4-51.6-55.6 12.7-55.4 106.6-55.1 181.8.4 51.8 4.6 98.7 12.1 131.7 10.5 46.1 28.5 51.6 46.6 47.5 47.9-10.8 53.8-96.5 53.4-198.4z"/><path d="M455.2 477.9l13.9-3.2c22.1-5 29.8-21.6 30.1-39.3l2.7-250.2c.3-15.5-9.1-30.4-30.2-25.6l-16 3.6.5-12.1c58.6-16.2 97.4-34.1 118.8-68.6l18.5-4.2-3.1 336.4c-.3 20 9.1 30.4 30.2 25.6l10.8-2.5-.5 12.1L454.8 490l.4-12.1z"/></svg>