<?xml version="1.0" encoding="utf-8"?>
<!-- Generator: Adobe Illustrator 25.4.1, SVG Export Plug-In . SVG Version: 6.00 Build 0)  -->
<svg version="1.1" id="Layer_1" focusable="false" xmlns="http://www.w3.org/2000/svg" xmlns:xlink="http://www.w3.org/1999/xlink"
	 x="0px" y="0px" viewBox="0 0 384 512" style="enable-background:new 0 0 384 512;" xml:space="preserve">
<path d="M97.1,362.6c-8.7-8.7-4.2-6.2-25.1-11.9c-9.5-2.5-17.9-7.5-25.4-13.3L1.2,448.7c-4.4,10.8,3.8,22.5,15.4,22l52.7-2
	l36.2,38.3c8,8.4,22,5.8,26.4-5L184,374.4c-10.8,6-22.9,9.6-35.3,9.6C129.2,384,110.9,376.4,97.1,362.6z M382.8,448.7l-45.4-111.2
	c-7.6,5.9-15.9,10.8-25.4,13.3c-21.1,5.6-16.5,3.2-25.1,11.9c-13.8,13.8-32.1,21.4-51.6,21.4c-12.4,0-24.5-3.5-35.3-9.6L252,502
	c4.4,10.8,18.4,13.4,26.4,5l36.2-38.3l52.7,2C379,471.2,387.2,459.5,382.8,448.7z M263,340c15.3-15.5,17-14.2,38.8-20.1
	c13.9-3.8,24.8-14.8,28.5-29c7.5-28.4,5.5-25,26-45.8c10.2-10.4,14.1-25.4,10.4-39.6c-7.5-28.4-7.5-24.4,0-52.8
	c3.7-14.1-0.2-29.2-10.4-39.6c-20.4-20.8-18.5-17.4-26-45.8c-3.7-14.1-14.6-25.2-28.5-29c-27.9-7.6-24.5-5.6-45-26.4
	c-10.2-10.4-25-14.4-38.9-10.6C190.1,9,194,9,166,1.4c-13.9-3.8-28.7,0.2-38.9,10.6c-20.4,20.8-17.1,18.8-44.9,26.4
	c-13.9,3.8-24.8,14.8-28.5,29c-7.5,28.4-5.5,25-26,45.8c-10.2,10.3-14.1,25.4-10.4,39.6c7.5,28.4,7.5,24.4,0,52.8
	c-3.7,14.1,0.2,29.2,10.4,39.6c20.4,20.8,18.5,17.4,26,45.8c3.7,14.1,14.6,25.2,28.5,29c22.4,6.1,24.1,5.1,38.8,20.1
	c13.2,13.5,33.8,15.9,49.7,5.8c13-8.2,29.6-8.2,42.5,0C229.2,355.9,249.8,353.5,263,340z M97.7,176c0-53,42.2-96,94.3-96
	s94.3,43,94.3,96s-42.2,96-94.3,96S97.7,229,97.7,176L97.7,176z"/>
</svg>
